<svg width="242" height="30" viewBox="0 0 242 30" fill="none" xmlns="http://www.w3.org/2000/svg">
<path d="M0 5.80176H6.3119C9.96757 5.80176 11.2152 8.48482 11.2152 11.1679C11.2152 14.8705 8.93459 16.534 5.53381 16.534H3.60872V23.6709H0V5.80176ZM3.60872 13.8912H5.21185C6.64058 13.8912 7.61318 13.0393 7.61318 11.2081C7.61318 9.37694 6.94242 8.45128 5.10452 8.45128H3.60872V13.8912Z" fill="white"/>
<path d="M18.4459 5.45898C23.8523 5.45898 24.5297 9.30247 24.5297 14.7424C24.5297 20.1823 23.859 24.0325 18.4459 24.0325C13.0328 24.0325 12.3621 20.1756 12.3621 14.7424C12.3621 9.30917 13.0395 5.45898 18.4459 5.45898ZM18.4459 21.3695C20.5789 21.3695 20.921 19.5383 20.921 14.7424C20.921 9.9464 20.5789 8.1085 18.4459 8.1085C16.3129 8.1085 15.9641 9.95982 15.9641 14.7491C15.9641 19.5383 16.3196 21.3695 18.4459 21.3695Z" fill="white"/>
<path d="M25.355 5.80176H28.8027L30.815 19.0158H30.8553L32.9548 5.80176H36.4092L38.5087 19.0158H38.5623L40.5411 5.80176H43.9888L40.7222 23.6709H36.6976L34.6853 10.7118H34.6317L32.6194 23.6709H28.5948L25.355 5.80176Z" fill="white"/>
<path d="M55.1568 5.80176V8.77996H48.7711V12.9857H54.808V15.9437H48.7711V20.7464H55.4117V23.6911H45.1758V5.80176H55.1568Z" fill="white"/>
<path d="M56.9551 5.80176H63.6158C66.5671 5.80176 68.3648 7.35793 68.3648 10.4099C68.3648 12.7911 67.419 14.3876 65.3933 14.8168V14.8705C67.8416 15.1992 68.2172 16.5474 68.2776 20.3238C68.2776 22.1953 68.3916 23.1813 69.0691 23.5234V23.6709H65.1652C64.8431 23.104 64.6873 22.4577 64.7158 21.8062L64.6152 18.3719C64.5683 16.97 63.9444 16.1248 62.4822 16.1248H60.5571V23.6709H56.9551V5.80176ZM60.5571 13.6095H62.0596C63.7969 13.6095 64.7427 12.8649 64.7427 10.9264C64.7427 9.26961 63.8707 8.44457 62.234 8.44457H60.5571V13.6095Z" fill="white"/>
<path d="M80.6055 5.80176V8.77996H74.2198V12.9857H80.2567V15.9437H74.2198V20.7464H80.8537V23.6911H70.6245V5.80176H80.6055Z" fill="white"/>
<path d="M82.5779 5.80176H88.4873C93.4979 5.80176 94.3968 9.23607 94.3968 14.5217C94.3968 20.8604 93.0552 23.7045 88.2593 23.7045H82.5779V5.80176ZM86.1866 21.0281H87.7897C90.2917 21.0281 90.788 19.4518 90.788 14.5821C90.788 10.5575 90.4661 8.45799 87.7025 8.45799H86.1866V21.0281Z" fill="white"/>
<path d="M102.271 5.80176H108.308C111.259 5.80176 113.392 6.90852 113.392 10.3294C113.392 12.2612 112.467 13.7369 110.709 14.2467V14.2869C112.722 14.562 113.962 16.0645 113.962 18.439C113.962 21.2495 112.587 23.6709 108.382 23.6709H102.298L102.271 5.80176ZM105.873 13.1399H106.899C108.912 13.1399 109.784 12.4692 109.784 10.7923C109.784 9.11534 108.952 8.45799 107.174 8.45799H105.873V13.1399ZM105.873 21.0281H107.275C109.005 21.0281 110.179 20.3976 110.179 18.3451C110.179 16.2925 109.005 15.662 107.422 15.662H105.873V21.0281Z" fill="white"/>
<path d="M118.813 5.80176L121.167 12.7106H121.214L123.723 5.80176H127.626L122.985 16.648V23.6709H119.396V16.648L114.768 5.80176H118.813Z" fill="white"/>
<path d="M133.335 0.688477H149.514C152.197 0.688477 154.267 1.35924 155.725 2.70077C156.421 3.32269 156.975 4.08743 157.349 4.94287C157.723 5.7983 157.908 6.7243 157.891 7.65773C157.925 9.21795 157.375 10.7344 156.349 11.9104C155.53 12.7885 154.493 13.4342 153.344 13.7818C155.051 14.0919 156.605 14.9658 157.757 16.2636C158.732 17.5258 159.233 19.0902 159.173 20.684C159.193 22.0498 158.845 23.3959 158.166 24.5811C157.503 25.7234 156.546 26.668 155.396 27.3179C154.373 27.825 153.262 28.1323 152.123 28.2234C150.838 28.421 149.544 28.5486 148.246 28.6057H133.335V0.688477ZM142.055 11.6555H145.831C147.173 11.6555 148.132 11.4274 148.668 10.9847C148.942 10.7293 149.156 10.4163 149.294 10.0683C149.432 9.72031 149.491 9.34601 149.467 8.97243C149.485 8.61534 149.423 8.25867 149.285 7.92889C149.147 7.59911 148.936 7.30467 148.668 7.06745C148.132 6.62027 147.206 6.39668 145.891 6.39668H142.055V11.6555ZM142.055 22.589H146.468C147.957 22.589 149.01 22.3274 149.621 21.8042C149.924 21.5448 150.165 21.2198 150.324 20.8537C150.483 20.4876 150.557 20.0901 150.54 19.6912C150.556 19.3085 150.482 18.9273 150.325 18.578C150.168 18.2286 149.931 17.9208 149.634 17.679C149.024 17.1826 147.964 16.9344 146.448 16.9344H142.055V22.589Z" fill="white"/>
<path d="M159.77 0.688477H168.362V21.7237H181.818V28.5923H159.75L159.77 0.688477Z" fill="#8AB7E9"/>
<path d="M199.988 0.688477H208.608V17.3234C208.621 18.9212 208.36 20.5094 207.836 22.0188C207.336 23.4694 206.507 24.7847 205.415 25.8623C204.445 26.8785 203.263 27.6685 201.954 28.1764C200.012 28.8409 197.968 29.1566 195.917 29.1088C194.428 29.1008 192.941 29.0068 191.463 28.8271C190.064 28.6959 188.7 28.3118 187.438 27.6935C186.305 27.0875 185.299 26.27 184.474 25.2854C183.641 24.3525 183.013 23.2558 182.629 22.0658C182.143 20.5463 181.877 18.9652 181.837 17.3704V0.688477H190.443V17.7326C190.405 18.3836 190.498 19.0356 190.717 19.6499C190.936 20.2641 191.276 20.828 191.718 21.3078C192.185 21.7508 192.737 22.0931 193.342 22.3135C193.947 22.5339 194.59 22.6277 195.233 22.589C195.872 22.6251 196.512 22.5321 197.115 22.3154C197.718 22.0987 198.271 21.7629 198.741 21.3279C199.183 20.8449 199.524 20.2775 199.742 19.6597C199.959 19.0419 200.05 18.3864 200.008 17.7326L199.988 0.688477Z" fill="#8AB7E9"/>
<path d="M219.548 16.9838C219.817 20.1364 221.641 22.3499 224.981 22.3499C226.699 22.3499 228.583 21.6791 229.442 20.3778H239.396C237.243 26.3544 231.38 29.0978 225.035 29.0978C216.1 29.0978 209.379 23.8658 209.379 14.6294C209.379 6.5802 215.296 0 224.136 0C235.217 0 240.007 6.1375 240.007 16.9234L219.548 16.9838ZM229.764 11.4835C229.775 10.8663 229.661 10.2533 229.428 9.68154C229.195 9.1098 228.849 8.59124 228.41 8.15727C227.971 7.7233 227.449 7.38295 226.874 7.15684C226.3 6.93072 225.686 6.82355 225.069 6.8418C221.889 6.8418 220.065 8.49859 219.582 11.4835H229.764Z" fill="#8AB7E9"/>
<path d="M241.999 3.23154C242.012 3.70333 241.884 4.16835 241.631 4.5669C241.378 4.96545 241.012 5.27935 240.58 5.46831C240.147 5.65726 239.668 5.71265 239.204 5.62736C238.74 5.54208 238.312 5.32001 237.974 4.98966C237.637 4.65931 237.407 4.23575 237.312 3.77336C237.217 3.31097 237.263 2.83084 237.443 2.39461C237.623 1.95838 237.93 1.58595 238.323 1.32513C238.717 1.06431 239.179 0.926998 239.651 0.93082C239.956 0.927279 240.259 0.984026 240.543 1.09782C240.826 1.21161 241.084 1.3802 241.302 1.59393C241.52 1.80766 241.694 2.06233 241.814 2.34335C241.933 2.62436 241.996 2.92619 241.999 3.23154ZM237.853 3.23154C237.847 3.47154 237.889 3.71035 237.976 3.9339C238.064 4.15745 238.195 4.36121 238.363 4.53314C238.53 4.70507 238.731 4.8417 238.952 4.93496C239.173 5.02822 239.411 5.07623 239.651 5.07615C239.887 5.07449 240.121 5.02545 240.339 4.93191C240.556 4.83836 240.752 4.70222 240.916 4.53153C241.08 4.36083 241.208 4.15903 241.292 3.93806C241.377 3.71708 241.416 3.48141 241.408 3.24496C241.408 2.77353 241.221 2.32141 240.888 1.98806C240.554 1.65471 240.102 1.46743 239.631 1.46743C239.159 1.46743 238.707 1.65471 238.374 1.98806C238.041 2.32141 237.853 2.77353 237.853 3.24496V3.23154ZM239.275 4.42551H238.739V2.12478C239.031 2.0765 239.327 2.05182 239.624 2.051C239.898 2.02345 240.174 2.0871 240.409 2.2321C240.488 2.28762 240.551 2.3623 240.594 2.44912C240.636 2.53593 240.655 2.63206 240.65 2.72847C240.642 2.85899 240.591 2.98317 240.505 3.0815C240.419 3.17984 240.302 3.24677 240.174 3.27179C240.402 3.33887 240.509 3.51997 240.583 3.82853C240.61 4.02377 240.667 4.21377 240.751 4.39197H240.187C240.096 4.21545 240.035 4.02506 240.006 3.82853C239.959 3.59376 239.825 3.47972 239.53 3.47972H239.275V4.42551ZM239.275 3.13763H239.53C239.825 3.13763 240.06 3.03702 240.06 2.79555C240.06 2.55407 239.906 2.44675 239.57 2.44675C239.472 2.43589 239.373 2.43589 239.275 2.44675V3.13763Z" fill="#8AB7E9"/>
</svg>
