<svg width="228" height="86" viewBox="0 0 228 86" fill="none" xmlns="http://www.w3.org/2000/svg">
<path d="M0 7.37958H12.7678C18.5563 7.37958 21.6986 10.5884 21.6986 15.9446C21.6986 21.3009 18.5563 24.5512 12.7678 24.5097H3.87829V36.3582H0V7.37958ZM3.87829 21.2595H11.4612C15.8274 21.3009 17.8203 19.3939 17.8203 15.9446C17.8203 12.4954 15.8191 10.6298 11.4612 10.6298H3.87829V21.2595Z" fill="white"/>
<path d="M41.2801 36.3573H38.0138V33.0325H37.9311C36.4592 35.6277 34.0941 36.8465 31.0759 36.8465C25.5272 36.8465 23.8154 33.6792 23.8154 29.1769V15.38H27.2803V29.5832C27.2803 32.137 28.9093 33.8036 31.5637 33.8036C35.7645 33.8036 37.807 31.0011 37.807 27.2285V15.38H41.2719V36.3656L41.2801 36.3573Z" fill="white"/>
<path d="M44.4553 15.3715H47.7217V18.6964H47.8044C49.2763 16.1012 51.6413 14.8823 54.6596 14.8823C60.2083 14.8823 61.92 18.0497 61.92 22.5519V36.3489H58.4552V22.1456C58.4552 19.5919 56.8262 17.9253 54.1717 17.9253C49.9709 17.9253 47.9284 20.7278 47.9284 24.5004V36.3489H44.4636V15.3632L44.4553 15.3715Z" fill="white"/>
<path d="M69.9084 15.3721H74.1092V18.415H69.9084V31.4409C69.9084 33.0246 70.3549 33.3065 72.5215 33.3065H74.1092V36.3494H71.4548C67.8659 36.3494 66.4353 35.6198 66.4353 31.7643V18.415H62.8464V15.3721H66.4353V9.07886H69.9001V15.3721H69.9084Z" fill="white"/>
<path d="M84.9998 14.8823C91.6897 14.8823 95.2372 19.7079 95.2372 25.8768C95.2372 32.0456 91.6897 36.8381 84.9998 36.8381C78.31 36.8381 74.7625 32.0125 74.7625 25.8768C74.7625 19.7411 78.31 14.8823 84.9998 14.8823ZM84.9998 33.7951C88.63 33.7951 91.5656 30.9511 91.5656 25.8851C91.5656 20.819 88.63 17.9336 84.9998 17.9336C81.3696 17.9336 78.434 20.7775 78.434 25.8851C78.434 30.9926 81.3696 33.7951 84.9998 33.7951Z" fill="white"/>
<path d="M99.3965 29.7422C99.5205 32.8266 102.208 33.7967 105.069 33.7967C107.227 33.7967 110.163 33.3076 110.163 30.6709C110.163 28.0342 106.74 27.545 103.266 26.7739C99.843 26.0028 96.3782 24.8669 96.3782 20.8455C96.3782 16.6252 100.579 14.8757 104.251 14.8757C108.898 14.8757 112.611 16.335 112.9 21.4508H109.435C109.187 18.7726 106.822 17.9186 104.54 17.9186C102.456 17.9186 100.05 18.4907 100.05 20.5968C100.05 23.0759 103.721 23.4822 106.938 24.2533C110.403 25.0244 113.835 26.1603 113.835 30.2231C113.835 35.2146 109.146 36.8397 104.862 36.8397C100.132 36.8397 96.1384 34.9327 95.9316 29.7339H99.3965V29.7422Z" fill="white"/>
<path d="M47.4241 47.0451H48.5984V74.6639C48.5984 76.1979 48.2924 77.6074 47.6805 78.8926C47.0686 80.1778 46.2416 81.2888 45.1997 82.2257C44.1578 83.1627 42.9339 83.8923 41.5199 84.4064C40.1058 84.9205 38.6008 85.1775 36.9966 85.1775C35.3923 85.1775 33.8873 84.9205 32.4733 84.4064C31.0592 83.8923 29.8271 83.1627 28.7686 82.2257C27.7102 81.2888 26.8832 80.1778 26.2879 78.8926C25.6925 77.6074 25.3948 76.1979 25.3948 74.6639V47.0451H26.5194V74.6639C26.5194 76.0735 26.8171 77.3587 27.4125 78.5112C28.0079 79.672 28.7935 80.667 29.761 81.4961C30.7285 82.3252 31.8448 82.9637 33.11 83.3948C34.3669 83.8343 35.6652 84.0499 36.9966 84.0499C38.3279 84.0499 39.6097 83.8343 40.8501 83.3948C42.0904 82.9554 43.1985 82.3252 44.1743 81.4961C45.1418 80.667 45.9274 79.672 46.5228 78.5112C47.1182 77.3504 47.4159 76.0652 47.4159 74.6639V47.0451H47.4241ZM45.0757 47.0451H46.2499V74.6639C46.2499 75.916 45.9935 77.0519 45.4809 78.0717C44.9682 79.0916 44.2818 79.9705 43.4135 80.7001C42.5453 81.4381 41.5529 82.0102 40.4531 82.4164C39.345 82.8227 38.1956 83.03 37.0048 83.03C35.8141 83.03 34.6646 82.8227 33.5566 82.4164C32.4485 82.0102 31.4644 81.4381 30.5962 80.7001C29.7279 79.9622 29.025 79.0916 28.504 78.0717C27.9748 77.0519 27.7102 75.916 27.7102 74.6639V47.0451H28.934V74.6639C28.934 75.7252 29.1325 76.7036 29.5211 77.5991C29.9098 78.4946 30.4638 79.2657 31.1833 79.9207C31.9027 80.5757 32.7462 81.0898 33.7385 81.4463C34.7225 81.8029 35.8141 81.9853 37.0048 81.9853C38.1956 81.9853 39.2375 81.8029 40.2216 81.4463C41.2056 81.0898 42.0574 80.5757 42.7768 79.9207C43.488 79.2657 44.0503 78.4863 44.4637 77.5991C44.8689 76.7036 45.0757 75.7252 45.0757 74.6639V47.0451ZM42.7768 47.0451H43.9014V74.6639C43.9014 75.634 43.7112 76.5046 43.3391 77.2675C42.967 78.0386 42.4543 78.6853 41.8093 79.2159C41.1643 79.7466 40.4283 80.1529 39.6097 80.4348C38.791 80.7167 37.9227 80.8577 37.0048 80.8577C36.087 80.8577 35.2104 80.7167 34.3752 80.4348C33.54 80.1529 32.7958 79.7466 32.1508 79.2159C31.5058 78.6853 30.9931 78.0303 30.621 77.2675C30.2488 76.5046 30.0587 75.634 30.0587 74.6639V47.0451H31.1833V74.6639C31.1833 76.2891 31.7042 77.5577 32.7379 78.4697C33.7798 79.3818 35.2021 79.8295 37.0048 79.8295C38.8075 79.8295 40.2216 79.3735 41.247 78.4697C42.2724 77.566 42.7768 76.2974 42.7768 74.6639V47.0451Z" fill="white"/>
<path d="M74.0426 48.123H50.748V47.0451H74.0426V48.123ZM62.9535 84.4727H61.7792V50.229H50.7397V49.1926H74.0343V50.229H62.9452V84.4727H62.9535ZM60.6546 84.4727H59.4804V52.3931H50.7397V51.3152H60.6546V84.4727ZM65.3102 84.4727H64.0864V51.3152H74.0508V52.3931H65.3102V84.4727Z" fill="white"/>
<path d="M99.5372 74.0919C99.5372 75.7834 99.2644 77.2675 98.7186 78.5527C98.1728 79.8379 97.3872 80.9158 96.3701 81.7947C95.3447 82.6736 94.1209 83.3369 92.6903 83.7929C91.2597 84.2489 89.6555 84.4728 87.8858 84.4728H76.4412V47.0369H87.8858C91.4251 47.0369 94.2366 47.9241 96.3122 49.6902C98.3878 51.4563 99.4298 54.0349 99.4298 57.4178C99.4298 59.6068 99.0576 61.3563 98.3051 62.658C97.5526 63.9598 96.552 64.9962 95.2868 65.7839C96.5438 66.5633 97.5692 67.5997 98.3547 68.8849C99.1403 70.1701 99.529 71.903 99.529 74.1002L99.5372 74.0919ZM87.8858 83.4447C91.1191 83.4447 93.6826 82.6238 95.5763 80.9821C97.4699 79.3404 98.4126 77.0437 98.4126 74.1002C98.4126 72.1932 98.0405 70.5432 97.288 69.1668C96.5355 67.7904 95.2951 66.6628 93.5586 65.7839C95.2951 64.8801 96.519 63.7442 97.2384 62.3761C97.9496 61.0163 98.3134 59.3663 98.3134 57.4178C98.3134 54.4744 97.3872 52.1859 95.5267 50.5608C93.6661 48.9357 91.1274 48.1148 87.8858 48.1148H77.5658V83.4364H87.8858V83.4447ZM97.3955 74.0919C97.3955 76.6291 96.5438 78.6356 94.8403 80.1032C93.1368 81.5791 90.8214 82.3088 87.8941 82.3088H78.6987V49.1927H87.8941C90.8214 49.1927 93.1203 49.9389 94.7907 51.4231C96.4611 52.9073 97.2963 54.9055 97.2963 57.4095C97.2963 59.5985 96.7422 61.4226 95.6342 62.8819C94.5261 64.3412 93.0376 65.303 91.1605 65.7673C93.0293 66.2068 94.5426 67.152 95.6838 68.6113C96.8249 70.0706 97.3955 71.8947 97.3955 74.0836V74.0919ZM87.8858 65.2615C89.2503 65.2615 90.4493 65.0542 91.4912 64.648C92.5332 64.2417 93.4014 63.6862 94.0961 62.9814C94.7907 62.2766 95.3199 61.4475 95.6838 60.4939C96.0393 59.5404 96.2213 58.5123 96.2213 57.4178C96.2213 55.2537 95.4936 53.5208 94.0465 52.2025C92.5993 50.8842 90.5485 50.2291 87.8858 50.2291H79.9143V65.2615H87.8858ZM79.9225 66.298V81.2806H87.8941C90.5485 81.2806 92.6076 80.6256 94.0795 79.3072C95.5432 77.9889 96.2792 76.256 96.2792 74.0919C96.2792 72.9974 96.0972 71.9693 95.7416 71.0158C95.3861 70.0623 94.8486 69.2331 94.1291 68.5284C93.4097 67.8236 92.5332 67.2764 91.4995 66.8867C90.4576 66.497 89.2585 66.298 87.8941 66.298H79.9225ZM81.0471 51.3153H87.8941C90.2426 51.3153 92.0287 51.8625 93.2609 52.957C94.4847 54.0515 95.0966 55.5439 95.0966 57.4178C95.0966 59.6731 94.4351 61.3728 93.1038 62.5171C91.7724 63.6613 90.0359 64.2334 87.8941 64.2334H81.0471V51.3153ZM95.1959 74.0919C95.1959 75.9741 94.5674 77.4665 93.3022 78.5776C92.0453 79.6887 90.2343 80.2442 87.8858 80.2442H81.0389V67.4256H87.8858C89.9945 67.4256 91.7393 67.9811 93.1203 69.0922C94.5013 70.2032 95.1876 71.8698 95.1876 74.0919H95.1959ZM87.8858 63.1555C89.6555 63.1555 91.1191 62.6912 92.2768 61.7708C93.4345 60.8505 94.0134 59.3995 94.0134 57.4261C94.0134 55.7347 93.4759 54.4744 92.4009 53.6452C91.3259 52.8161 89.8209 52.4015 87.8776 52.4015H82.2048V63.1555H87.8776H87.8858ZM87.8858 79.216C89.8291 79.216 91.3507 78.7849 92.4587 77.9226C93.5668 77.0603 94.1209 75.7834 94.1209 74.0919C94.1209 72.1849 93.5255 70.7588 92.3347 69.8218C91.1439 68.8849 89.6637 68.4123 87.8858 68.4123H82.2131V79.216H87.8858Z" fill="white"/>
<path d="M125.899 74.6566C125.899 76.1906 125.593 77.6001 124.981 78.8853C124.37 80.1705 123.543 81.2815 122.501 82.2184C121.459 83.1554 120.235 83.885 118.821 84.3991C117.407 84.9132 115.902 85.1702 114.298 85.1702C112.693 85.1702 111.188 84.9132 109.774 84.3991C108.36 83.885 107.128 83.1554 106.07 82.2184C105.011 81.2815 104.184 80.1705 103.589 78.8853C102.993 77.6001 102.696 76.1906 102.696 74.6566V56.9047C102.696 55.3707 102.993 53.9529 103.589 52.6511C104.184 51.3494 105.011 50.2383 106.07 49.318C107.128 48.3976 108.36 47.6763 109.774 47.1539C111.188 46.6398 112.693 46.3828 114.298 46.3828C115.902 46.3828 117.407 46.6398 118.821 47.1539C120.235 47.668 121.459 48.3893 122.501 49.318C123.543 50.2383 124.37 51.3577 124.981 52.6511C125.593 53.9529 125.899 55.3707 125.899 56.9047V74.6566ZM124.725 56.9047C124.725 55.4619 124.427 54.1685 123.832 53.0077C123.237 51.8469 122.451 50.8602 121.484 50.0476C120.516 49.2351 119.408 48.5966 118.159 48.1489C116.919 47.6929 115.629 47.469 114.306 47.469C112.983 47.469 111.685 47.6929 110.419 48.1489C109.162 48.6049 108.046 49.2351 107.07 50.0476C106.103 50.8602 105.317 51.8469 104.722 53.0077C104.126 54.1685 103.829 55.4702 103.829 56.9047V74.6566C103.829 76.0662 104.126 77.3514 104.722 78.5039C105.317 79.6647 106.103 80.6597 107.07 81.4888C108.038 82.3179 109.154 82.9564 110.419 83.3875C111.676 83.827 112.975 84.0426 114.306 84.0426C115.637 84.0426 116.919 83.827 118.159 83.3875C119.4 82.9481 120.508 82.3179 121.484 81.4888C122.451 80.6597 123.237 79.6647 123.832 78.5039C124.427 77.3431 124.725 76.0579 124.725 74.6566V56.9047ZM123.551 74.6566C123.551 75.9086 123.295 77.0446 122.782 78.0644C122.269 79.0843 121.583 79.9632 120.715 80.6928C119.846 81.4308 118.854 82.0029 117.754 82.4091C116.646 82.8154 115.497 83.0227 114.306 83.0227C113.115 83.0227 111.966 82.8154 110.858 82.4091C109.749 82.0029 108.765 81.4308 107.897 80.6928C107.029 79.9549 106.343 79.0843 105.83 78.0644C105.317 77.0446 105.061 75.9086 105.061 74.6566V56.9047C105.061 55.6527 105.317 54.5084 105.83 53.472C106.343 52.4356 107.029 51.5567 107.897 50.8187C108.765 50.0808 109.749 49.5087 110.858 49.1024C111.966 48.6961 113.115 48.4888 114.306 48.4888C115.497 48.4888 116.646 48.6961 117.754 49.1024C118.862 49.5087 119.846 50.0808 120.715 50.8187C121.583 51.5567 122.269 52.4356 122.782 53.472C123.295 54.5084 123.551 55.6527 123.551 56.9047V74.6566ZM122.377 56.9047C122.377 55.8434 122.17 54.8567 121.765 53.9446C121.36 53.0408 120.797 52.2614 120.078 51.623C119.358 50.9846 118.507 50.4788 117.523 50.1223C116.53 49.7657 115.464 49.5833 114.306 49.5833C113.148 49.5833 112.024 49.7657 111.039 50.1223C110.047 50.4788 109.204 50.9846 108.484 51.623C107.765 52.2614 107.219 53.0408 106.822 53.9446C106.434 54.8567 106.235 55.8434 106.235 56.9047V74.6566C106.235 75.7179 106.434 76.6963 106.822 77.5918C107.211 78.4873 107.765 79.2584 108.484 79.9134C109.204 80.5684 110.047 81.0825 111.039 81.439C112.024 81.7956 113.115 81.978 114.306 81.978C115.497 81.978 116.539 81.7956 117.523 81.439C118.507 81.0825 119.358 80.5684 120.078 79.9134C120.797 79.2584 121.351 78.479 121.765 77.5918C122.178 76.7046 122.377 75.7179 122.377 74.6566V56.9047ZM121.252 74.6566C121.252 75.6267 121.062 76.4973 120.69 77.2602C120.318 78.0313 119.805 78.678 119.16 79.2086C118.515 79.7393 117.771 80.1456 116.935 80.4275C116.1 80.7094 115.224 80.8504 114.306 80.8504C113.388 80.8504 112.511 80.7094 111.676 80.4275C110.841 80.1456 110.097 79.7393 109.452 79.2086C108.807 78.678 108.294 78.023 107.922 77.2602C107.55 76.4973 107.36 75.6267 107.36 74.6566V56.9047C107.36 55.9346 107.55 55.064 107.922 54.3011C108.294 53.5383 108.807 52.875 109.452 52.3278C110.097 51.7805 110.841 51.366 111.676 51.0841C112.511 50.8022 113.388 50.6612 114.306 50.6612C115.224 50.6612 116.1 50.8022 116.935 51.0841C117.771 51.366 118.507 51.7805 119.16 52.3278C119.805 52.875 120.318 53.53 120.69 54.3011C121.062 55.0723 121.252 55.9346 121.252 56.9047V74.6566ZM120.078 56.9047C120.078 55.2464 119.565 53.9612 118.548 53.0574C117.523 52.1454 116.109 51.6976 114.306 51.6976C112.503 51.6976 111.081 52.1537 110.039 53.0574C108.997 53.9695 108.484 55.2464 108.484 56.9047V74.6566C108.484 76.2818 109.005 77.5504 110.039 78.4624C111.081 79.3745 112.503 79.8222 114.306 79.8222C116.109 79.8222 117.523 79.3662 118.548 78.4624C119.573 77.5587 120.078 76.2901 120.078 74.6566V56.9047Z" fill="white"/>
<path d="M21.9712 48.0733H1.23185V84.4561H0.0576172V47.0451H21.9712V48.0816V48.0733ZM21.9712 50.2373H3.5886V65.3029H15.6866V66.3476H3.58033V84.481H2.35648V49.2092H21.9712V50.2456V50.2373ZM21.9712 52.3517H5.82957V63.1471H15.6866V64.2831H4.70495V51.3235H21.9712V52.36V52.3517Z" fill="white"/>
<path d="M145.945 84.4728H129.083V47.0369H130.258V83.4364H145.945V84.4728ZM145.945 82.317H131.382V47.0452H132.557V81.2889H145.945V82.3253V82.317ZM145.945 80.2027H133.731V47.0452H134.855V79.1746H145.945V80.211V80.2027Z" fill="white"/>
<path d="M5.8297 68.5043H15.6949V67.4264H4.70508V84.4736H5.8297V68.5043Z" fill="white"/>
<path d="M190.821 41.9623C190.673 41.896 190.59 41.8546 190.59 41.8546C190.59 41.8546 190.673 41.8877 190.821 41.9623C190.821 33.0159 189.854 21.5239 189.854 21.5239C189.854 21.5239 189.846 21.4908 189.854 21.4825C178.897 18.68 170.942 18.141 170.934 18.141C170.934 18.1742 170.942 18.1991 170.942 18.1991C170.942 18.1991 170.942 18.1825 170.934 18.141C161.647 31.2249 160.771 35.2629 160.721 35.4867V35.495C168.8 47.5342 172.976 50.0465 172.976 50.0465C180.179 47.9985 190.821 41.9623 190.821 41.9623Z" fill="white"/>
<path d="M205.119 12.5367C205.119 12.5367 218.077 19.2859 220.723 23.1497C220.955 23.4897 223.353 21.7817 224.635 18.8382C223.667 17.2545 222.601 15.7455 221.435 14.3111C221.418 14.2945 221.401 14.2696 221.385 14.253C221.211 14.0457 221.046 13.8385 220.872 13.6312C220.839 13.598 220.806 13.5565 220.781 13.5234C220.616 13.3327 220.442 13.1337 220.277 12.943C220.236 12.8932 220.194 12.8518 220.153 12.802C219.987 12.6196 219.822 12.4372 219.648 12.2548C219.599 12.205 219.557 12.1553 219.508 12.1055C219.342 11.9314 219.169 11.749 219.003 11.5749C218.954 11.5251 218.904 11.4754 218.855 11.4256C218.681 11.2515 218.515 11.0774 218.342 10.9116C218.292 10.8618 218.243 10.8121 218.185 10.7623C218.011 10.5965 217.829 10.4224 217.656 10.2565C217.606 10.2068 217.556 10.1571 217.498 10.1156C217.316 9.94977 217.135 9.78394 216.953 9.61811C216.903 9.57665 216.853 9.5269 216.804 9.48545C216.614 9.31962 216.432 9.15379 216.241 8.99625C216.192 8.95479 216.142 8.91334 216.101 8.87188C215.911 8.70605 215.712 8.54851 215.514 8.38268C215.472 8.34952 215.423 8.30806 215.381 8.27489C215.175 8.10906 214.976 7.95153 214.77 7.7857C214.728 7.75253 214.695 7.72766 214.654 7.70278C214.439 7.53695 214.224 7.37113 214.009 7.21359C213.984 7.19701 213.951 7.17213 213.926 7.15555C213.695 6.98972 213.471 6.82389 213.24 6.65806C213.223 6.64977 213.215 6.64148 213.198 6.6249C209.634 4.12088 205.649 2.18068 201.373 0.92038C201.398 0.970128 203.532 5.77917 205.136 12.5367H205.119Z" fill="white"/>
<path d="M219.474 67.8325C219.665 67.6252 219.855 67.4262 220.037 67.219C220.103 67.1443 220.161 67.078 220.227 67.0034C220.401 66.8127 220.566 66.6137 220.731 66.423C220.797 66.3401 220.864 66.2654 220.93 66.1825C221.095 65.9918 221.252 65.7928 221.409 65.5938C221.476 65.5109 221.533 65.4363 221.6 65.3534C221.765 65.1461 221.922 64.9388 222.079 64.7315C222.137 64.6569 222.187 64.5906 222.245 64.5159C222.418 64.2838 222.592 64.0433 222.766 63.8112C222.799 63.7614 222.832 63.72 222.865 63.6702C223.287 63.0815 223.692 62.4762 224.08 61.8627C224.271 61.5642 224.453 61.2657 224.634 60.9672C224.668 60.9092 224.701 60.8511 224.742 60.7848C224.891 60.536 225.031 60.2956 225.172 60.0469C225.213 59.9722 225.263 59.8893 225.304 59.8064C225.437 59.5742 225.561 59.3421 225.685 59.1016C225.734 59.0187 225.776 58.9275 225.817 58.8446C225.941 58.6124 226.057 58.372 226.181 58.1398C226.222 58.0569 226.263 57.9657 226.305 57.8828C226.429 57.634 226.545 57.3853 226.66 57.1366C226.693 57.0619 226.727 56.9873 226.76 56.9127C226.892 56.6308 227.016 56.3406 227.14 56.0587C227.157 56.0172 227.173 55.9758 227.19 55.9426C227.479 55.2627 227.752 54.5745 228 53.878C224.816 44.8901 222.385 43.0245 222.17 42.7675C222.162 42.7592 222.145 42.7509 222.129 42.7675C215.927 48.7788 209.576 51.573 208.509 51.9627C208.451 51.9876 208.402 52.0539 208.402 52.1202C208.294 57.7004 205.847 69.0182 205.822 69.1426C211.47 70.0298 215.993 69.3581 218.557 68.7529C218.805 68.5041 219.044 68.2554 219.284 67.9983C219.334 67.9486 219.383 67.8906 219.433 67.8408L219.474 67.8325Z" fill="white"/>
<path d="M187.68 76.4316C187.68 76.4316 187.671 76.4316 188.134 76.357C179.857 73.6622 172.117 67.6261 172.117 67.6261C172.1 67.6261 172.084 67.6344 172.067 67.6426C168.214 68.6625 163.459 68.6376 160.531 68.4884C162.218 70.2462 164.071 71.8547 166.047 73.2808C166.055 73.2808 166.064 73.2891 166.072 73.2974C166.303 73.4632 166.535 73.6291 166.767 73.7866C166.791 73.8032 166.816 73.8198 166.841 73.8364C167.064 73.9856 167.287 74.1431 167.519 74.2924C167.552 74.3173 167.593 74.3421 167.627 74.3587C167.85 74.4997 168.073 74.6489 168.296 74.7899C168.338 74.8148 168.379 74.8396 168.42 74.8645C168.644 75.0055 168.867 75.1381 169.09 75.2708C169.132 75.2957 169.173 75.3205 169.214 75.3454C169.438 75.4781 169.669 75.6107 169.901 75.7434C169.942 75.7683 169.983 75.7848 170.025 75.8097C170.256 75.9424 170.496 76.0668 170.728 76.1994C170.761 76.216 170.794 76.2326 170.827 76.2575C171.067 76.3901 171.315 76.5145 171.563 76.6389C171.588 76.6472 171.612 76.6637 171.629 76.672C171.885 76.8047 172.15 76.9291 172.414 77.0534C174.639 78.1147 176.971 78.9771 179.402 79.6155C179.41 79.6155 179.427 79.6155 179.435 79.6238C179.716 79.6984 179.997 79.773 180.287 79.8394C180.32 79.8394 180.345 79.856 180.378 79.8642C180.651 79.9306 180.924 79.9886 181.196 80.0549C181.238 80.0632 181.279 80.0715 181.32 80.0798C181.593 80.1379 181.858 80.1959 182.131 80.2457C182.18 80.2539 182.222 80.2622 182.271 80.2705C182.536 80.3203 182.809 80.37 183.082 80.4115C183.131 80.4115 183.181 80.4281 183.231 80.4364C183.504 80.4778 183.776 80.5193 184.041 80.5607C184.091 80.5607 184.132 80.5773 184.182 80.5773C184.455 80.6188 184.736 80.6519 185.017 80.6851C185.058 80.6851 185.1 80.6934 185.133 80.7017C185.422 80.7348 185.703 80.768 185.993 80.7929C186.017 80.7929 186.042 80.7929 186.067 80.7929C186.373 80.8178 186.671 80.8426 186.977 80.8675C187.87 78.6703 188.143 76.4233 188.151 76.357C187.688 76.4399 187.696 76.4316 187.696 76.4316H187.68Z" fill="white"/>
<path d="M150.724 38.5296C150.724 38.5296 150.219 35.6524 149.781 32.7504C149.74 32.9909 149.698 33.2396 149.657 33.4884C149.649 33.563 149.632 33.6293 149.624 33.7039C149.591 33.9195 149.558 34.1434 149.525 34.3673C149.508 34.4668 149.491 34.5745 149.483 34.674C149.458 34.873 149.434 35.0803 149.409 35.2876C149.392 35.412 149.376 35.5364 149.367 35.6607C149.351 35.8514 149.326 36.0338 149.31 36.2245C149.293 36.3738 149.285 36.5147 149.268 36.664C149.252 36.8381 149.243 37.0122 149.227 37.1863C149.219 37.3522 149.202 37.5263 149.194 37.6921C149.185 37.8497 149.177 37.9989 149.169 38.1565C149.161 38.3637 149.152 38.5627 149.144 38.77C149.144 38.8944 149.136 39.0188 149.128 39.1431C149.128 39.4748 149.111 39.8064 149.111 40.1381C149.111 40.5112 149.111 40.8926 149.128 41.2657C149.128 41.3901 149.136 41.5062 149.144 41.6306C149.152 41.8793 149.161 42.1363 149.177 42.3851C149.177 42.526 149.194 42.667 149.202 42.808C149.219 43.0401 149.235 43.264 149.252 43.4961C149.26 43.6454 149.276 43.7946 149.293 43.9356C149.31 44.1595 149.334 44.3833 149.359 44.6072C149.376 44.7564 149.392 44.9057 149.409 45.0466C149.434 45.2705 149.467 45.4944 149.491 45.7183C149.508 45.8592 149.533 46.0002 149.549 46.1411C149.582 46.3733 149.624 46.6054 149.657 46.8376C149.682 46.962 149.698 47.0946 149.723 47.219C149.773 47.4843 149.822 47.7497 149.872 48.015C149.888 48.1062 149.905 48.1974 149.921 48.2886C149.996 48.6534 150.07 49.01 150.153 49.3665C150.161 45.3203 150.269 39.964 150.715 38.5296H150.724Z" fill="white"/>
<path d="M150.724 38.5562C150.724 38.5562 150.219 35.679 149.781 32.777C149.74 33.0175 149.698 33.2662 149.657 33.515C149.649 33.5896 149.632 33.6559 149.624 33.7306C149.591 33.9461 149.558 34.17 149.525 34.3939C149.508 34.4934 149.491 34.6012 149.483 34.7007C149.458 34.8996 149.434 35.1069 149.409 35.3142C149.392 35.4386 149.376 35.563 149.367 35.6873C149.351 35.878 149.326 36.0605 149.31 36.2512C149.293 36.4004 149.285 36.5414 149.268 36.6906C149.252 36.8647 149.243 37.0388 149.227 37.213C149.219 37.3788 149.202 37.5529 149.194 37.7187C149.185 37.8763 149.177 38.0255 149.169 38.1831C149.161 38.3903 149.152 38.5893 149.144 38.7966C149.144 38.921 149.136 39.0454 149.128 39.1697C149.128 39.5014 149.111 39.8331 149.111 40.1647C149.111 40.5378 149.111 40.9192 149.128 41.2924C149.128 41.4167 149.136 41.5328 149.144 41.6572C149.152 41.9059 149.161 42.163 149.177 42.4117C149.177 42.5527 149.194 42.6936 149.202 42.8346C149.219 43.0667 149.235 43.2906 149.252 43.5228C149.26 43.672 149.276 43.8212 149.293 43.9622C149.31 44.1861 149.334 44.4099 149.359 44.6338C149.376 44.7831 149.392 44.9323 149.409 45.0733C149.434 45.2971 149.467 45.521 149.491 45.7449C149.508 45.8858 149.533 46.0268 149.549 46.1677C149.582 46.3999 149.624 46.632 149.657 46.8642C149.682 46.9886 149.698 47.1212 149.723 47.2456C149.773 47.5109 149.822 47.7763 149.872 48.0416C149.888 48.1328 149.905 48.224 149.921 48.3152C149.996 48.68 150.07 49.0366 150.153 49.3931C150.161 45.3469 150.269 39.9906 150.715 38.5562H150.724Z" fill="white"/>
<path d="M169.578 7.02285C169.578 6.94823 169.57 6.87361 169.561 6.79899C169.561 6.87361 169.57 6.94823 169.578 7.02285C169.611 6.99798 176.177 1.97336 182.089 0C180.824 0.248743 179.576 0.555526 178.352 0.912059C178.352 0.912059 178.343 0.912059 178.335 0.912059C176.723 1.38467 175.151 1.96507 173.63 2.62839C173.597 2.64497 173.564 2.66155 173.531 2.66985C173.175 2.82738 172.82 2.99321 172.464 3.15904C172.456 3.15904 172.439 3.16733 172.431 3.17562C171.695 3.52386 170.967 3.89698 170.256 4.29497C170.215 4.31984 170.173 4.34472 170.132 4.3613C169.826 4.52713 169.528 4.70125 169.231 4.88366C169.173 4.91683 169.115 4.94999 169.049 4.99145C168.735 5.18215 168.42 5.37286 168.114 5.56356C168.09 5.58014 168.073 5.58843 168.048 5.60502C167.701 5.8206 167.362 6.05276 167.023 6.27662C167.015 6.27662 167.006 6.28492 166.998 6.29321C166.692 6.50049 166.386 6.71607 166.08 6.93994C166.014 6.98969 165.948 7.03944 165.873 7.08919C165.617 7.2716 165.369 7.4623 165.121 7.653C165.055 7.70275 164.989 7.7525 164.922 7.81054C164.616 8.0427 164.319 8.28316 164.029 8.52361C165.435 8.13391 167.246 7.63642 169.57 7.01456L169.578 7.02285Z" fill="white"/>
<path d="M143.274 49.1177C143.257 47.6252 142.041 46.4313 140.553 46.4479C140.52 46.4479 140.487 46.4479 140.454 46.4479C138.94 46.4893 137.741 47.7579 137.783 49.2752C137.824 50.7926 139.089 51.9948 140.603 51.9534C142.116 51.9119 143.315 50.6433 143.274 49.126C143.274 49.126 143.274 49.1177 143.274 49.1094V49.1177ZM138.469 48.9021C138.535 47.7579 139.503 46.8873 140.644 46.9536C141.785 47.02 142.653 47.9901 142.587 49.1343C142.587 49.1592 142.587 49.1923 142.587 49.2172C142.587 50.3448 141.678 51.2652 140.545 51.2735C140.52 51.2735 140.503 51.2735 140.479 51.2735C139.337 51.2403 138.428 50.2868 138.461 49.1426C138.461 49.068 138.461 48.9933 138.461 48.9187L138.469 48.9021ZM140.115 49.383H140.412C140.751 49.383 140.909 49.5157 140.958 49.7893C140.991 50.0215 141.066 50.2371 141.173 50.4443H141.818C141.727 50.2371 141.661 50.0132 141.62 49.7893C141.537 49.4577 141.413 49.2504 141.148 49.1675V49.1343C141.454 49.0763 141.678 48.8275 141.702 48.5124C141.702 48.2886 141.603 48.073 141.421 47.9403C141.148 47.7662 140.826 47.6916 140.512 47.733C140.173 47.733 139.825 47.7662 139.486 47.816V50.519H140.106V49.383H140.115ZM140.115 48.2139C140.23 48.1974 140.338 48.1974 140.454 48.2139C140.842 48.2139 141.024 48.3466 141.024 48.6202C141.024 48.8938 140.743 49.0099 140.404 49.0099H140.115V48.2139Z" fill="white"/>
</svg>
